{
    "accessors" : [
        {
            "bufferView" : 0, 
            "componentType" : 5123, 
            "count" : 1716, 
            "max" : [
                360
            ], 
            "min" : [
                0
            ], 
            "type" : "SCALAR"
        }, 
        {
            "bufferView" : 1, 
            "componentType" : 5126, 
            "count" : 361, 
            "max" : [
                1.0, 
                2.0, 
                1.0
            ], 
            "min" : [
                -1.0, 
                0.0, 
                -1.0
            ], 
            "type" : "VEC3"
        }, 
        {
            "bufferView" : 2, 
            "componentType" : 5126, 
            "count" : 361, 
            "max" : [
                1.0, 
                0.6856898665428162, 
                0.999969482421875
            ], 
            "min" : [
                -1.0, 
                -0.6856898665428162, 
                -1.0
            ], 
            "type" : "VEC3"
        }, 
        {
            "bufferView" : 3, 
            "componentType" : 5126, 
            "count" : 361, 
            "max" : [
                1.25, 
                0.9999000398311182
            ], 
            "min" : [
                -0.25, 
                -2.384185791015625e-07
            ], 
            "type" : "VEC2"
        }, 
        {
            "bufferView" : 4, 
            "componentType" : 5123, 
            "count" : 361, 
            "max" : [
                0, 
                1, 
                0, 
                0
            ], 
            "min" : [
                0, 
                1, 
                0, 
                0
            ], 
            "type" : "VEC4"
        }, 
        {
            "bufferView" : 5, 
            "componentType" : 5126, 
            "count" : 361, 
            "max" : [
                0.8661382794380188, 
                0.8661379814147949, 
                0.0, 
                0.0
            ], 
            "min" : [
                0.13386201858520508, 
                0.13386207818984985, 
                0.0, 
                0.0
            ], 
            "type" : "VEC4"
        }, 
        {
            "bufferView" : 6, 
            "componentType" : 5126, 
            "count" : 2, 
            "max" : [
                1.0, 
                0.0, 
                0.0, 
                0.0, 
                0.0, 
                1.0, 
                0.0, 
                0.0, 
                0.0, 
                0.0, 
                1.0, 
                0.0, 
                0.0, 
                0.0, 
                0.0, 
                1.0
            ], 
            "min" : [
                1.0, 
                0.0, 
                0.0, 
                0.0, 
                0.0, 
                1.0, 
                0.0, 
                0.0, 
                0.0, 
                0.0, 
                1.0, 
                0.0, 
                0.0, 
                -1.0, 
                0.0, 
                1.0
            ], 
            "type" : "MAT4"
        }
    ], 
    "asset" : {
        "generator" : "Khronos Blender glTF 2.0 exporter", 
        "version" : "2.0"
    }, 
    "bufferViews" : [
        {
            "buffer" : 0, 
            "byteLength" : 3432, 
            "byteOffset" : 0, 
            "target" : 34963
        }, 
        {
            "buffer" : 0, 
            "byteLength" : 4332, 
            "byteOffset" : 3432, 
            "target" : 34962
        }, 
        {
            "buffer" : 0, 
            "byteLength" : 4332, 
            "byteOffset" : 7764, 
            "target" : 34962
        }, 
        {
            "buffer" : 0, 
            "byteLength" : 2888, 
            "byteOffset" : 12096, 
            "target" : 34962
        }, 
        {
            "buffer" : 0, 
            "byteLength" : 2888, 
            "byteOffset" : 14984, 
            "target" : 34962
        }, 
        {
            "buffer" : 0, 
            "byteLength" : 5776, 
            "byteOffset" : 17872, 
            "target" : 34962
        }, 
        {
            "buffer" : 0, 
            "byteLength" : 128, 
            "byteOffset" : 23648
        }
    ], 
    "buffers" : [
        {
            "byteLength" : 23776, 
            "uri" : "cylinder.bin"
        }
    ], 
    "images" : [
        {
            "uri" : "uvgrid.png"
        }
    ], 
    "materials" : [
        {
            "name" : "Material", 
            "pbrMetallicRoughness" : {
                "baseColorFactor" : [
                    0.6400000190734865, 
                    0.6400000190734865, 
                    0.6400000190734865, 
                    1.0
                ], 
                "baseColorTexture" : {
                    "index" : 0
                }, 
                "metallicFactor" : 0.0
            }
        }
    ], 
    "meshes" : [
        {
            "name" : "Cylinder", 
            "primitives" : [
                {
                    "attributes" : {
                        "JOINTS_0" : 4, 
                        "NORMAL" : 2, 
                        "POSITION" : 1, 
                        "TEXCOORD_0" : 3, 
                        "WEIGHTS_0" : 5
                    }, 
                    "indices" : 0, 
                    "material" : 0
                }
            ]
        }
    ], 
    "nodes" : [
        {
            "children" : [
                1, 
                2
            ], 
            "name" : "Armature"
        }, 
        {
            "mesh" : 0, 
            "name" : "Cylinder", 
            "skin" : 0
        }, 
        {
            "children" : [
                3
            ], 
            "name" : "Armature_Bone"
        }, 
        {
            "name" : "Armature_Bone.001", 
            "translation" : [
                0.0, 
                1.0, 
                0.0
            ]
        }
    ], 
    "samplers" : [
        {}
    ], 
    "scene" : 0, 
    "scenes" : [
        {
            "name" : "Scene", 
            "nodes" : [
                0
            ]
        }
    ], 
    "skins" : [
        {
            "inverseBindMatrices" : 6, 
            "joints" : [
                2, 
                3
            ], 
            "skeleton" : 0
        }
    ], 
    "textures" : [
        {
            "sampler" : 0, 
            "source" : 0
        }
    ]
}
